<svg width="130" height="33" viewBox="0 0 130 33" fill="none" xmlns="http://www.w3.org/2000/svg">
<path d="M15.1094 32.5369H9.08251V8.36602H0V2.31804H24.1709V8.36602H15.1094V32.5369Z" fill="#0460D9"/>
<path d="M33.5484 3.83531C33.5484 4.36916 33.443 4.86789 33.2323 5.3315C33.0356 5.7951 32.7617 6.20252 32.4104 6.55374C32.0592 6.89091 31.6448 7.16486 31.1671 7.37559C30.7035 7.57227 30.2048 7.67061 29.6709 7.67061C29.1371 7.67061 28.6313 7.57227 28.1537 7.37559C27.6901 7.16486 27.2826 6.89091 26.9314 6.55374C26.5943 6.20252 26.3203 5.7951 26.1096 5.3315C25.9129 4.86789 25.8146 4.36916 25.8146 3.83531C25.8146 3.3155 25.9129 2.8238 26.1096 2.36019C26.3203 1.88253 26.5943 1.47512 26.9314 1.13795C27.2826 0.786729 27.6901 0.512779 28.1537 0.316097C28.6313 0.105366 29.1371 0 29.6709 0C30.2048 0 30.7035 0.105366 31.1671 0.316097C31.6448 0.512779 32.0592 0.786729 32.4104 1.13795C32.7617 1.47512 33.0356 1.88253 33.2323 2.36019C33.443 2.8238 33.5484 3.3155 33.5484 3.83531ZM32.5579 32.5369H26.7628V9.96758H32.5579V32.5369Z" fill="black"/>
<path d="M43.3685 32.5369L34.7706 9.96758H41.3244L46.2555 24.0444L51.1655 9.96758H57.7403L49.1425 32.5369H43.3685Z" fill="#0460D9"/>
<path d="M68.2347 27.0157C68.4595 27.086 68.6843 27.1351 68.9091 27.1632C69.1338 27.1773 69.3586 27.1843 69.5834 27.1843C70.1453 27.1843 70.6862 27.107 71.206 26.9525C71.7258 26.798 72.2105 26.5802 72.6601 26.2992C73.1237 26.0042 73.5311 25.653 73.8823 25.2456C74.2476 24.8241 74.5426 24.3605 74.7674 23.8548L78.982 28.0905C78.4482 28.8491 77.83 29.5304 77.1276 30.1345C76.4392 30.7386 75.6876 31.2514 74.8727 31.6729C74.072 32.0943 73.222 32.4104 72.3229 32.6212C71.4378 32.8459 70.5247 32.9583 69.5834 32.9583C67.9959 32.9583 66.4997 32.6633 65.0948 32.0733C63.704 31.4832 62.4818 30.6614 61.4281 29.6077C60.3885 28.5541 59.5666 27.3037 58.9626 25.8567C58.3585 24.3956 58.0564 22.7941 58.0564 21.052C58.0564 19.2678 58.3585 17.6382 58.9626 16.1631C59.5666 14.688 60.3885 13.4306 61.4281 12.391C62.4818 11.3514 63.704 10.5436 65.0948 9.96758C66.4997 9.39158 67.9959 9.10358 69.5834 9.10358C70.5247 9.10358 71.4449 9.21597 72.344 9.44075C73.2431 9.66553 74.093 9.98865 74.8938 10.4101C75.7086 10.8316 76.4673 11.3514 77.1697 11.9695C77.8722 12.5736 78.4903 13.255 79.0241 14.0136L68.2347 27.0157ZM71.185 15.1516C70.918 15.0532 70.6511 14.99 70.3842 14.9619C70.1313 14.9338 69.8644 14.9198 69.5834 14.9198C68.7967 14.9198 68.0521 15.0673 67.3496 15.3623C66.6613 15.6433 66.0572 16.0507 65.5374 16.5845C65.0316 17.1184 64.6312 17.7646 64.3362 18.5233C64.0412 19.2678 63.8937 20.1108 63.8937 21.052C63.8937 21.2628 63.9007 21.5016 63.9147 21.7685C63.9428 22.0354 63.978 22.3094 64.0201 22.5904C64.0763 22.8573 64.1395 23.1172 64.2098 23.3701C64.28 23.623 64.3713 23.8477 64.4837 24.0444L71.185 15.1516Z" fill="#0460D9"/>
<path d="M87.7273 32.5369H81.9322V0.990436H87.7273V32.5369Z" fill="#0460D9"/>
<path d="M101.109 27.0157C101.334 27.086 101.558 27.1351 101.783 27.1632C102.008 27.1773 102.233 27.1843 102.457 27.1843C103.019 27.1843 103.56 27.107 104.08 26.9525C104.6 26.798 105.085 26.5802 105.534 26.2992C105.998 26.0042 106.405 25.653 106.756 25.2456C107.122 24.8241 107.417 24.3605 107.641 23.8548L111.856 28.0905C111.322 28.8491 110.704 29.5304 110.002 30.1345C109.313 30.7386 108.562 31.2514 107.747 31.6729C106.946 32.0943 106.096 32.4104 105.197 32.6212C104.312 32.8459 103.399 32.9583 102.457 32.9583C100.87 32.9583 99.3737 32.6633 97.9689 32.0733C96.578 31.4832 95.3558 30.6614 94.3022 29.6077C93.2625 28.5541 92.4407 27.3037 91.8366 25.8567C91.2325 24.3956 90.9305 22.7941 90.9305 21.052C90.9305 19.2678 91.2325 17.6382 91.8366 16.1631C92.4407 14.688 93.2625 13.4306 94.3022 12.391C95.3558 11.3514 96.578 10.5436 97.9689 9.96758C99.3737 9.39158 100.87 9.10358 102.457 9.10358C103.399 9.10358 104.319 9.21597 105.218 9.44075C106.117 9.66553 106.967 9.98865 107.768 10.4101C108.583 10.8316 109.341 11.3514 110.044 11.9695C110.746 12.5736 111.364 13.255 111.898 14.0136L101.109 27.0157ZM104.059 15.1516C103.792 15.0532 103.525 14.99 103.258 14.9619C103.005 14.9338 102.738 14.9198 102.457 14.9198C101.671 14.9198 100.926 15.0673 100.224 15.3623C99.5353 15.6433 98.9312 16.0507 98.4114 16.5845C97.9057 17.1184 97.5053 17.7646 97.2102 18.5233C96.9152 19.2678 96.7677 20.1108 96.7677 21.052C96.7677 21.2628 96.7747 21.5016 96.7888 21.7685C96.8169 22.0354 96.852 22.3094 96.8941 22.5904C96.9503 22.8573 97.0136 23.1172 97.0838 23.3701C97.154 23.623 97.2454 23.8477 97.3577 24.0444L104.059 15.1516Z" fill="#0460D9"/>
<path d="M120.559 32.5369H114.806V9.96758H116.197L118.094 12.6439C119.021 11.8009 120.075 11.1547 121.255 10.7051C122.435 10.2415 123.657 10.0097 124.921 10.0097H130V15.7416H124.921C124.317 15.7416 123.748 15.854 123.214 16.0788C122.681 16.3036 122.217 16.6126 121.824 17.006C121.43 17.3994 121.121 17.863 120.896 18.3968C120.672 18.9307 120.559 19.4996 120.559 20.1037V32.5369Z" fill="#0460D9"/>
</svg>
