<svg width="60" height="60" viewBox="0 0 60 60" fill="none" xmlns="http://www.w3.org/2000/svg">
<path d="M41.0874 11.0867C40.3667 11.0867 39.783 11.6704 39.783 12.3911C39.783 13.1117 40.3667 13.6954 41.0874 13.6954H50.8701C51.5907 13.6954 52.1744 13.1117 52.1744 12.3911C52.1744 11.6704 51.5907 11.0867 50.8701 11.0867H41.0874Z" fill="black"/>
<path d="M44.3488 21.5214C44.3488 20.8008 44.9325 20.2171 45.6532 20.2171H50.5444C51.2651 20.2171 51.8488 20.8008 51.8488 21.5214C51.8488 22.2421 51.2651 22.8258 50.5444 22.8258H45.6532C44.9325 22.8258 44.3488 22.2421 44.3488 21.5214Z" fill="black"/>
<path fill-rule="evenodd" clip-rule="evenodd" d="M16.9574 2.60867C16.9574 1.16735 18.1247 0 19.566 0H57.3913C58.8327 0 60 1.16735 60 2.60867V32.6088C60 34.0501 58.8327 35.2175 57.3913 35.2175H37.7933L36.9292 36.7566C39.1042 39.0849 40.4346 42.212 40.4346 45.652V56.7386C40.4346 58.5386 38.9737 59.9994 37.1738 59.9994H6.52168C2.91846 59.9994 0 57.081 0 53.4777V45.6517C0 38.4486 5.84017 32.6084 13.0434 32.6084H14.3477V29.9997C11.9705 28.216 10.4347 25.3758 10.4347 22.1737V15.277C8.13254 14.2695 6.52168 11.9738 6.52168 9.29663V7.69879C6.52168 5.54015 8.27278 3.78579 10.4347 3.78579H16.9564L16.9574 2.60867ZM20.2182 29.3473C16.2562 29.3473 13.0443 26.1354 13.0443 22.1734V15.8181H24.4798C24.6755 15.8181 24.8581 15.9061 24.982 16.0561L27.3918 18.968V22.1734C27.3918 26.1353 24.1801 29.3473 20.2182 29.3473ZM39.261 32.6081L40.9208 29.6604C41.273 29.0343 41.0512 28.2387 40.4219 27.8832C39.7958 27.531 39.0002 27.7528 38.6448 28.3821L36.2676 32.6082H26.0875V29.9995C28.4647 28.2158 30.0005 25.3756 30.0005 22.1735V19.7703C31.0668 19.4898 31.957 18.5638 31.957 17.2432V12.916C31.957 7.87473 27.868 3.78525 22.8263 3.78525H19.5655V2.60805H57.3908V32.6082L39.261 32.6081ZM33.6361 37.2907L27.0166 49.056C26.6122 48.9615 26.1916 48.9125 25.7611 48.9125H12.3914V44.6735C12.3914 43.9528 11.8077 43.3691 11.0871 43.3691C10.3664 43.3691 9.78272 43.9528 9.78272 44.6735V48.9125H3.26105C3.03931 48.9125 2.82084 48.9354 2.60888 48.9778V45.6517C2.60888 39.8898 7.2817 35.217 13.0436 35.217H14.4946C15.0849 37.8322 17.4229 39.7822 20.2174 39.7822C23.012 39.7822 25.35 37.8323 25.9402 35.217H27.3913C29.7326 35.217 31.8947 35.9864 33.6361 37.2907ZM29.3481 50.2297L35.5697 39.1723C36.9817 40.9495 37.8262 43.2027 37.8262 45.6516V56.7382C37.8262 57.0969 37.5328 57.3904 37.1741 57.3904H30.4632C30.998 56.5393 31.3045 55.5349 31.3045 54.4556C31.3045 52.7633 30.5448 51.2471 29.3481 50.2297ZM2.60942 53.4775V52.1732C2.60942 51.8145 2.9029 51.521 3.26159 51.521H19.5656V57.3905H6.52222C4.36032 57.3905 2.60942 55.6394 2.60942 53.4775ZM22.1749 57.3905H25.7618C27.3824 57.3905 28.6965 56.0764 28.6965 54.4558C28.6965 52.8351 27.3824 51.521 25.7618 51.521H22.1749V57.3905ZM23.4792 31.3981C22.4585 31.7601 21.3629 31.9557 20.2184 31.9557C19.0739 31.9557 17.9782 31.7601 16.9576 31.3981V33.9122C16.9576 35.7122 18.4185 37.173 20.2184 37.173C22.0183 37.173 23.4792 35.7122 23.4792 33.9122V31.3981ZM10.4359 6.39412C9.71521 6.39412 9.13152 6.98107 9.13152 7.69846V9.2963C9.13152 11.4582 10.8826 13.2093 13.0445 13.2093H24.4801C25.4519 13.2093 26.3746 13.643 26.9942 14.393L29.3485 17.243V12.9159C29.3485 9.31592 26.43 6.39421 22.8268 6.39421L10.4359 6.39412Z" fill="black"/>
</svg>
