<svg width="42" height="60" viewBox="0 0 42 60" fill="none" xmlns="http://www.w3.org/2000/svg">
<path fill-rule="evenodd" clip-rule="evenodd" d="M10.4351 9.1308C8.99383 9.1308 7.82648 10.2981 7.82648 11.7395V18.2611C7.82648 19.7025 8.99383 20.8698 10.4351 20.8698H31.3045C32.7458 20.8698 33.9132 19.7025 33.9132 18.2611V11.7395C33.9132 10.2981 32.7458 9.1308 31.3045 9.1308H10.4351ZM10.4351 11.7395H31.3045V18.2611H10.4351V11.7395Z" fill="black"/>
<path d="M7.82648 28.0434C7.82648 27.3228 8.41017 26.7391 9.13081 26.7391H11.7395C12.4601 26.7391 13.0438 27.3228 13.0438 28.0434C13.0438 28.7641 12.4601 29.3477 11.7395 29.3477H9.13081C8.41017 29.3477 7.82648 28.7641 7.82648 28.0434Z" fill="black"/>
<path d="M9.13118 37.1741C8.41053 37.1741 7.82684 37.7578 7.82684 38.4785C7.82684 39.1991 8.41053 39.7828 9.13118 39.7828H11.7398C12.4605 39.7828 13.0442 39.1991 13.0442 38.4785C13.0442 37.7578 12.4605 37.1741 11.7398 37.1741H9.13118Z" fill="black"/>
<path d="M18.2612 28.0434C18.2612 27.3228 18.8449 26.7391 19.5655 26.7391H22.1742C22.8948 26.7391 23.4785 27.3228 23.4785 28.0434C23.4785 28.7641 22.8948 29.3477 22.1742 29.3477H19.5655C18.8449 29.3477 18.2612 28.7641 18.2612 28.0434Z" fill="black"/>
<path d="M19.5659 37.1741C18.8453 37.1741 18.2616 37.7578 18.2616 38.4785C18.2616 39.1991 18.8453 39.7828 19.5659 39.7828H22.1746C22.8952 39.7828 23.4789 39.1991 23.4789 38.4785C23.4789 37.7578 22.8952 37.1741 22.1746 37.1741H19.5659Z" fill="black"/>
<path d="M7.82648 49.5656C7.82648 48.8449 8.41017 48.2612 9.13081 48.2612H11.7395C12.4601 48.2612 13.0438 48.8449 13.0438 49.5656C13.0438 50.2862 12.4601 50.8699 11.7395 50.8699H9.13081C8.41017 50.8699 7.82648 50.2862 7.82648 49.5656Z" fill="black"/>
<path d="M18.9131 48.2608C18.1925 48.2608 17.6088 48.8445 17.6088 49.5651C17.6088 50.2858 18.1925 50.8695 18.9131 50.8695H32.6084C33.3291 50.8695 33.9127 50.2858 33.9127 49.5651C33.9127 48.8445 33.3291 48.2608 32.6084 48.2608H18.9131Z" fill="black"/>
<path d="M28.6958 28.0434C28.6958 27.3228 29.2795 26.7391 30.0001 26.7391H32.6088C33.3295 26.7391 33.9131 27.3228 33.9131 28.0434C33.9131 28.7641 33.3295 29.3477 32.6088 29.3477H30.0001C29.2795 29.3477 28.6958 28.7641 28.6958 28.0434Z" fill="black"/>
<path d="M30.0006 37.1741C29.2799 37.1741 28.6962 37.7578 28.6962 38.4785C28.6962 39.1991 29.2799 39.7828 30.0006 39.7828H32.6092C33.3299 39.7828 33.9136 39.1991 33.9136 38.4785C33.9136 37.7578 33.3299 37.1741 32.6092 37.1741H30.0006Z" fill="black"/>
<path fill-rule="evenodd" clip-rule="evenodd" d="M6.52168 0C2.91846 0 0 2.91846 0 6.52168V53.4777C0 57.081 2.91846 59.9994 6.52168 59.9994H35.217C38.8203 59.9994 41.7387 57.081 41.7387 53.4777V6.52168C41.7387 2.91846 38.8203 0 35.217 0H6.52168ZM2.60867 6.52168C2.60867 4.35978 4.35978 2.60867 6.52168 2.60867H35.217C37.3789 2.60867 39.1301 4.35978 39.1301 6.52168V53.4777C39.1301 55.6396 37.3789 57.3908 35.217 57.3908H6.52168C4.35978 57.3908 2.60867 55.6396 2.60867 53.4777V6.52168Z" fill="black"/>
</svg>
