<svg width="28" height="28" viewBox="0 0 28 28" fill="none" xmlns="http://www.w3.org/2000/svg">
<path d="M21.4667 0H6.53335C4.80085 0.00233318 3.1408 0.690665 1.91567 1.91567C0.690665 3.14068 0.00235946 4.80085 0 6.53335V21.4667C0.00233318 23.1992 0.690665 24.8592 1.91567 26.0843C3.14068 27.3093 4.80085 27.9976 6.53335 28H21.4667C23.1992 27.9977 24.8592 27.3093 26.0843 26.0843C27.3093 24.8593 27.9976 23.1992 28 21.4667V6.53335C27.9977 4.80085 27.3093 3.1408 26.0843 1.91567C24.8593 0.690665 23.1992 0.00235946 21.4667 0ZM26.1333 21.4666C26.1321 22.7033 25.6398 23.8898 24.7648 24.7648C23.8898 25.6398 22.7033 26.1321 21.4667 26.1333H6.53335C5.29669 26.1321 4.11018 25.6398 3.23518 24.7648C2.36018 23.8898 1.86786 22.7033 1.86669 21.4666V6.53332C1.86786 5.29666 2.36018 4.11015 3.23518 3.23515C4.11018 2.36015 5.29666 1.86783 6.53335 1.86666H21.4667C22.7033 1.86783 23.8898 2.36015 24.7648 3.23515C25.6398 4.11015 26.1321 5.29663 26.1333 6.53332V21.4666ZM14 7.46665C12.2675 7.46665 10.6051 8.15499 9.37993 9.37996C8.15481 10.6049 7.46662 12.2675 7.46662 14C7.46662 15.7326 8.15496 17.395 9.37993 18.6201C10.6049 19.8452 12.2674 20.5334 14 20.5334C15.7326 20.5334 17.3949 19.8451 18.6201 18.6201C19.8452 17.3951 20.5334 15.7326 20.5334 14C20.531 12.2675 19.8427 10.6075 18.6177 9.38235C17.3927 8.15735 15.7325 7.46901 14 7.46665ZM14 18.6666C12.7622 18.6666 11.5757 18.1755 10.7006 17.2993C9.82447 16.4243 9.33331 15.2378 9.33331 13.9999C9.33331 12.7621 9.82447 11.5756 10.7006 10.7006C11.5756 9.82441 12.7621 9.33325 14 9.33325C15.2379 9.33325 16.4243 9.82441 17.2994 10.7006C18.1755 11.5756 18.6667 12.7621 18.6667 13.9999C18.6655 15.2366 18.1732 16.4231 17.2982 17.2981C16.4232 18.1731 15.2367 18.6655 14 18.6666ZM23.5666 6.0665C23.5666 6.72683 23.1687 7.32299 22.5586 7.57501C21.9484 7.82817 21.2449 7.68817 20.7783 7.22151C20.3116 6.75484 20.1716 6.05133 20.4248 5.44119C20.6768 4.83101 21.2729 4.43319 21.9333 4.43319C22.8351 4.43319 23.5666 5.16465 23.5666 6.0665Z" fill="black"/>
</svg>
