<svg width="28" height="28" viewBox="0 0 28 28" fill="none" xmlns="http://www.w3.org/2000/svg">
<path d="M21.6776 0H6.32242C2.83064 0 0 2.83064 0 6.32242V21.5485C0 25.0403 2.83064 27.8709 6.32242 27.8709H21.6776C25.1694 27.8709 28 25.0403 28 21.5485V6.32242C28 2.83064 25.1694 0 21.6776 0Z" fill="black"/>
<path fill-rule="evenodd" clip-rule="evenodd" d="M11.2093 10.803H14.747V12.6164H14.7984C15.2912 11.7327 16.4959 10.803 18.2924 10.803C22.0281 10.803 22.7188 13.1278 22.7188 16.152V22.546H19.0296L19.0291 16.8514C19.0291 15.5493 19.0023 13.8737 17.1106 13.8737C15.19 13.8737 14.8952 15.2907 14.8952 16.7568V22.546H11.2093V10.803ZM9.1186 7.24339C9.1186 8.30214 8.25891 9.16183 7.20016 9.16183C6.14086 9.16183 5.28117 8.30214 5.28117 7.24339C5.28117 6.18409 6.14086 5.32495 7.20016 5.32495C8.25891 5.32495 9.1186 6.18409 9.1186 7.24339ZM5.28117 10.803H9.1186V22.546H5.28117V10.803Z" fill="white"/>
</svg>
