<svg width="60" height="60" viewBox="0 0 60 60" fill="none" xmlns="http://www.w3.org/2000/svg">
<path d="M14.3476 28.0432C14.3476 27.3225 14.9313 26.7388 15.6519 26.7388H22.1736C22.8943 26.7388 23.4779 27.3225 23.4779 28.0432C23.4779 28.7638 22.8943 29.3475 22.1736 29.3475H15.6519C14.9313 29.3475 14.3476 28.7638 14.3476 28.0432Z" fill="black"/>
<path d="M17.6083 37.1731C17.6083 36.4525 18.192 35.8688 18.9126 35.8688H22.1734C22.8941 35.8688 23.4777 36.4525 23.4777 37.1731C23.4777 37.8938 22.8941 38.4774 22.1734 38.4774H18.9126C18.192 38.4774 17.6083 37.8938 17.6083 37.1731Z" fill="black"/>
<path fill-rule="evenodd" clip-rule="evenodd" d="M46.3036 15.6517H48.9123C50.6145 15.6517 52.0655 16.7408 52.6036 18.2604H56.0862C58.2481 18.2604 59.9992 20.0115 59.9992 22.1734V51.4982C59.9992 53.6601 58.2481 55.4112 56.0862 55.4112H42.3516C40.5517 55.4112 38.781 55.8775 37.2158 56.7644L32.5887 59.3796C31.5909 59.9437 28.4083 59.9437 27.4105 59.3796L22.7833 56.7644C21.2181 55.8775 19.4475 55.4112 17.6476 55.4112H3.913C1.75111 55.4112 0 53.6601 0 51.4982V22.1734C0 20.0115 1.75111 18.2604 3.913 18.2604H7.3956C7.93364 16.7408 9.3847 15.6517 11.0869 15.6517H24.7822C26.9148 15.6517 28.8093 16.6756 29.9995 18.2604C31.1898 16.6756 33.0843 15.6517 35.2169 15.6517V5.5434C35.2169 2.48145 37.6984 0 40.7603 0C43.8222 0 46.3037 2.48153 46.3037 5.5434L46.3036 15.6517ZM45.5667 35.344L42.8764 39.0745C41.8362 40.519 39.6841 40.519 38.6439 39.0745L35.9536 35.344C35.4743 34.6755 35.2167 33.8767 35.2167 33.0549V18.2602C33.0548 18.2602 31.3037 20.0113 31.3037 22.1732V49.0721L33.133 47.846C35.2852 46.4014 37.8156 45.6287 40.4047 45.6287H48.9118C49.6325 45.6287 50.2162 45.045 50.2162 44.3244V19.5649C50.2162 18.8443 49.6325 18.2606 48.9118 18.2606H46.3032V33.0553C46.3032 33.8771 46.046 34.6755 45.5667 35.344ZM37.8255 33.0549V31.6495H43.6949V33.0549C43.6949 33.3288 43.6102 33.5962 43.4504 33.8179L40.7601 37.5516L38.0699 33.8179C37.9101 33.5962 37.8255 33.3288 37.8255 33.0549ZM43.6949 10.5945V29.0413H37.8255V10.5945H43.6949ZM43.6949 5.5434V7.98579H37.8255V5.5434C37.8255 3.92277 39.1396 2.60867 40.7602 2.60867C42.3808 2.60867 43.6949 3.92277 43.6949 5.5434ZM7.17354 20.869H3.91275C3.1921 20.869 2.60841 21.4527 2.60841 22.1734V51.4982C2.60841 52.2188 3.1921 52.8025 3.91275 52.8025H17.6473C19.8973 52.8025 22.1082 53.3862 24.0679 54.4948L28.695 57.11V51.6872C28.2059 51.6872 27.7005 51.5503 27.2407 51.2405L25.4114 50.0111C23.6896 48.8535 21.6646 48.2372 19.594 48.2372H11.0868C8.9249 48.2372 7.17379 46.4861 7.17379 44.3242L7.17354 20.869ZM31.3035 51.6872V57.11L35.9307 54.4948C37.8905 53.3862 40.1013 52.8025 42.3513 52.8025H56.0858C56.8065 52.8025 57.3902 52.2188 57.3902 51.4982V22.1734C57.3902 21.4527 56.8065 20.869 56.0858 20.869H52.825V44.3245C52.825 46.4864 51.0739 48.2375 48.912 48.2375H40.4048C38.3342 48.2375 36.3093 48.8538 34.5875 50.0114L32.7581 51.2408C32.2984 51.5506 31.7927 51.6872 31.3035 51.6872ZM24.7819 18.2604C26.9438 18.2604 28.6949 20.0115 28.6949 22.1734V49.0723L26.8655 47.8462C24.7134 46.4016 22.183 45.6289 19.5939 45.6289H11.0867C10.3661 45.6289 9.78238 45.0452 9.78238 44.3245V19.5651C9.78238 18.8445 10.3661 18.2608 11.0867 18.2608L24.7819 18.2604Z" fill="black"/>
</svg>
