<svg width="50" height="71" viewBox="0 0 50 71" fill="none" xmlns="http://www.w3.org/2000/svg">
<path fill-rule="evenodd" clip-rule="evenodd" d="M14.4903 21.5218C12.6121 21.5218 11.086 19.9958 11.086 18.1175V13.3697C11.086 5.98717 17.073 0 24.4558 0C31.8386 0 37.8255 5.98692 37.8255 13.3697V18.1175C37.8255 19.9958 36.2995 21.5218 34.4212 21.5218H29.8332C29.6832 21.7142 29.5202 21.9001 29.3474 22.0762V25.4512C36.2473 25.7903 41.7388 31.4935 41.7388 38.4778V41.0865C41.7388 42.0354 41.4844 42.9288 41.0409 43.6952H46.9561C48.3974 43.6952 49.5647 44.8625 49.5647 46.3038V53.4777C49.5647 54.919 48.3974 56.0864 46.9561 56.0864H44.3474V67.825C44.3474 69.2663 43.18 70.4337 41.7387 70.4337H7.82601C6.38469 70.4337 5.21734 69.2663 5.21734 67.825V56.0864H2.60867C1.16735 56.0864 0 54.919 0 53.4777V46.3038C0 44.8625 1.16735 43.6952 2.60867 43.6952H7.87167C7.4282 42.9289 7.17385 42.0354 7.17385 41.0865V38.4778C7.17385 31.4931 12.6651 25.7901 19.5652 25.4512V22.0762C19.3924 21.9001 19.2294 21.7142 19.0794 21.5218H14.4903ZM2.60814 46.3046V53.4785H46.9555V46.3046H2.60814ZM31.9555 43.6959H36.3021C37.8641 43.6959 39.1293 42.4308 39.1293 40.8688V39.1308C39.1293 38.7721 38.8358 38.4786 38.4771 38.4786H31.9554C30.5141 38.4786 29.3468 39.646 29.3468 41.0873C29.3468 42.5286 30.5142 43.6959 31.9555 43.6959ZM26.7381 41.0873C26.7381 38.4264 28.7305 36.2319 31.3034 35.9091V34.5656C31.3034 33.845 31.887 33.2613 32.6077 33.2613C33.3283 33.2613 33.912 33.845 33.912 34.5656V35.8699C35.5229 35.8699 37.2022 35.7265 38.8033 35.8862C37.6587 31.4058 33.612 28.083 28.7827 28.0439C27.9609 29.5961 26.3338 30.6526 24.4555 30.6526C22.5773 30.6526 20.9501 29.5961 20.1284 28.0439C15.2991 28.0831 11.2522 31.4058 10.1078 35.8862C11.9241 35.7036 13.8251 35.8699 15.6512 35.8699V34.5656C15.6512 33.845 16.2349 33.2613 16.9555 33.2613C17.6761 33.2613 18.2598 33.845 18.2598 34.5656V36.033C20.5098 36.6134 22.1728 38.6547 22.1728 41.0873C22.1728 42.0362 21.9185 42.9296 21.475 43.6959H27.4358C26.9923 42.9296 26.7381 42.0362 26.7381 41.0873ZM16.9554 38.4786H10.4337C10.075 38.4786 9.78157 38.7721 9.78157 39.1308V40.8688C9.78157 42.4307 11.0468 43.6959 12.6087 43.6959H16.9554C18.3967 43.6959 19.564 42.5286 19.564 41.0872C19.564 39.6459 18.3967 38.4786 16.9554 38.4786ZM22.1728 23.7398V25.7616C22.1728 27.0235 23.1934 28.0442 24.4554 28.0442C25.7173 28.0442 26.738 27.0235 26.738 25.7616V23.7398C26.0238 23.9942 25.2543 24.1311 24.4554 24.1311C23.6564 24.1311 22.8869 23.9942 22.1728 23.7398ZM31.1073 18.9138C31.2345 18.3921 31.303 17.8443 31.303 17.2834V12.9726C31.303 11.5704 30.1682 10.4356 28.766 10.4356H20.1445C18.7423 10.4356 17.6075 11.5704 17.6075 12.9726V17.2834C17.6075 17.8443 17.676 18.3921 17.8032 18.9138H14.4901C14.0499 18.9138 13.6945 18.5584 13.6945 18.1182V13.3704C13.6945 7.42589 18.5107 2.60932 24.4556 2.60932C30.4004 2.60932 35.2166 7.42555 35.2166 13.3704V18.1182C35.2166 18.5584 34.8612 18.9138 34.421 18.9138H31.1073ZM20.216 13.0444V17.2834C20.216 19.6247 22.1138 21.5225 24.4551 21.5225C26.7964 21.5225 28.6942 19.6247 28.6942 17.2834V13.0444H20.216ZM41.7374 56.087H7.82465V67.8256H41.7374V56.087Z" fill="black"/>
</svg>
